# xmcd
#
# Track frame offsets:
# 150
# 21580
# 37210
# 55845
# 76382
# 99275
# 116740
# 135237
# 156055
# 177217
# 194810
# 218077
# 235130
# 250830
#
# Disc length: 3693 seconds
#
#
# Revision: 5
# Processed by: cddbd v1.5.1PL0 Copyright (c) Steve Scherf et al.
# Submitted via: FreeRIP 2.91 
#
DISCID=bf0e6b0e
DTITLE=Benny Benassi - The Biz - Hypnotica
DYEAR=1900
DGENRE=
TTITLE0=Satisfaction (Isak Original)
TTITLE1=Able To Love (Sfaction Mix)
TTITLE2=No Matter What You Do
TTITLE3=Let It Be
TTITLE4=Love Is Gonna Save Us
TTITLE5=Inside Of Me
TTITLE6=I Wanna Touch Your Soul
TTITLE7=I'm Sorry
TTITLE8=Time
TTITLE9=Puts Your Hands Up
TTITLE10=Get Loose
TTITLE11=Change Style
TTITLE12=I Love My Sex (Sfaction Mix)
TTITLE13=Don't Touch Too Much (Sfaction Mix)
EXTD=
EXTT0=
EXTT1=
EXTT2=
EXTT3=
EXTT4=
EXTT5=
EXTT6=
EXTT7=
EXTT8=
EXTT9=
EXTT10=
EXTT11=
EXTT12=
EXTT13=
PLAYORDER=
